<svg width="36" height="36" viewBox="0 0 36 36" fill="none" xmlns="http://www.w3.org/2000/svg">
<path d="M32.7273 0H3.27273C1.46455 0 0 1.46455 0 3.27273V32.7273C0 34.5355 1.46455 36 3.27273 36H19.6364V21.2727H14.7273V16.3636H19.6364V13.7275C19.6364 8.73655 22.068 6.54545 26.2162 6.54545C28.2027 6.54545 29.2533 6.69273 29.7507 6.75982V11.4545H26.9215C25.1607 11.4545 24.5455 12.384 24.5455 14.2658V16.3636H29.7065L29.0062 21.2727H24.5455V36H32.7273C34.5355 36 36 34.5355 36 32.7273V3.27273C36 1.46455 34.5338 0 32.7273 0Z" fill="white"/>
<path d="M19.6364 36V21.2727H14.7273V16.3636H19.6364V13.7275C19.6364 8.73655 22.068 6.54545 26.2162 6.54545C28.2027 6.54545 29.2533 6.69273 29.7507 6.75982V11.4545H26.9215C25.1607 11.4545 24.5455 12.384 24.5455 14.2658V16.3636H29.7066L29.0062 21.2727H24.5455V36H19.6364Z" fill="#4267B2"/>
</svg>
