<svg width="36" height="36" viewBox="0 0 36 36" fill="none" xmlns="http://www.w3.org/2000/svg">
<rect width="36" height="36" rx="4.5" fill="white"/>
<path fill-rule="evenodd" clip-rule="evenodd" d="M6 13.002C6 9.14195 9.13905 6 12.998 6H22.998C26.858 6 30 9.13905 30 12.998V22.998C30 26.858 26.861 30 23.002 30H13.002C9.14195 30 6 26.861 6 23.002V13.002ZM26 11C26 10.448 25.552 10 25 10C24.448 10 24 10.448 24 11C24 11.552 24.448 12 25 12C25.552 12 26 11.552 26 11ZM18 12C21.309 12 24 14.691 24 18C24 21.309 21.309 24 18 24C14.691 24 12 21.309 12 18C12 14.691 14.691 12 18 12ZM14 18C14 15.7909 15.7909 14 18 14C20.2091 14 22 15.7909 22 18C22 20.2091 20.2091 22 18 22C15.7909 22 14 20.2091 14 18Z" fill="#E1306C"/>
</svg>
