<svg width="36" height="36" viewBox="0 0 36 36" fill="none" xmlns="http://www.w3.org/2000/svg">
<rect width="36" height="36" rx="4.5" fill="white"/>
<path d="M30 11.3082C29.1166 11.7004 28.1678 11.9644 27.1718 12.0834C28.189 11.4743 28.969 10.5099 29.3363 9.35993C28.3856 9.92383 27.3315 10.3336 26.2091 10.5551C25.3109 9.59804 24.0316 9 22.6157 9C19.8964 9 17.6922 11.2048 17.6922 13.9228C17.6922 14.3085 17.7365 14.6851 17.8195 15.0441C13.7277 14.8392 10.1002 12.879 7.6707 9.89983C7.24795 10.6271 7.00519 11.4725 7.00519 12.376C7.00519 14.0833 7.87377 15.5904 9.19465 16.4727C8.38791 16.4469 7.62825 16.2254 6.96458 15.8572C6.96458 15.8784 6.96458 15.8978 6.96458 15.919C6.96458 18.3047 8.66113 20.2945 10.9143 20.7458C10.5017 20.8584 10.066 20.9184 9.61648 20.9184C9.29987 20.9184 8.99065 20.887 8.69067 20.8307C9.31741 22.7863 11.1358 24.2104 13.2902 24.25C11.6056 25.5707 9.48264 26.3579 7.17503 26.3579C6.77812 26.3579 6.38583 26.3349 6 26.2887C8.1793 27.6851 10.7666 28.5 13.5477 28.5C22.6046 28.5 27.5558 20.9987 27.5558 14.4931C27.5558 14.2799 27.5512 14.0677 27.5419 13.8563C28.5047 13.1614 29.34 12.2948 30 11.3082Z" fill="#1DA1F2"/>
</svg>
