<svg width="36" height="36" viewBox="0 0 36 36" fill="none" xmlns="http://www.w3.org/2000/svg">
<rect width="36" height="36" rx="4.5" fill="white"/>
<path d="M29.4613 23.94C29.2219 25.2 28.2045 26.16 26.9476 26.34C24.9726 26.64 21.6808 27 17.9701 27C14.3192 27 11.0274 26.64 8.99252 26.34C7.73566 26.16 6.7182 25.2 6.4788 23.94C6.2394 22.56 6 20.52 6 18C6 15.48 6.2394 13.44 6.4788 12.06C6.7182 10.8 7.73566 9.84 8.99252 9.66C10.9676 9.36 14.2594 9 17.9701 9C21.6808 9 24.9127 9.36 26.9476 9.66C28.2045 9.84 29.2219 10.8 29.4613 12.06C29.7007 13.44 30 15.48 30 18C29.9401 20.52 29.7007 22.56 29.4613 23.94Z" fill="#FF0000"/>
<path d="M15.576 22.2V13.8L22.7581 18L15.576 22.2Z" fill="white"/>
</svg>
