<svg width="162" height="35" viewBox="0 0 162 35" fill="none" xmlns="http://www.w3.org/2000/svg">
<path d="M40 15.6839V15.5623L38.4195 2.31003L22.9787 8.1459L20.0608 0.121581V0L19.9392 0.24316L17.0213 8.1459L1.70212 2.31003L0 15.4407V15.6839L7.41642 22.4924L1.33739 27.7204L3.89059 33.7994L11.9149 21.7629L5.59271 17.6292V17.5076L5.7143 17.6292L6.93011 10.0912L16.6566 14.8328L16.535 31.8541L20.0608 34.6505L23.465 31.8541V14.8328L33.0699 10.0912L34.2857 17.5076L34.1641 17.6292L27.9635 21.8845L35.9879 33.7994L38.5411 27.7204L32.462 22.4924L40 15.6839Z" fill="#F1F1F1"/>
<path d="M81.256 26H83.368C83.656 26 83.776 25.808 83.656 25.544L80.344 18.68C80.296 18.608 80.32 18.512 80.416 18.488C82.384 17.912 83.608 16.304 83.608 14.072C83.608 11.144 81.616 9.176 78.64 9.176H72.136C71.896 9.176 71.752 9.32 71.752 9.56V25.616C71.752 25.856 71.896 26 72.136 26H74.152C74.392 26 74.536 25.856 74.536 25.616V18.896C74.536 18.8 74.608 18.752 74.68 18.752H77.488C77.56 18.752 77.632 18.776 77.656 18.848L80.8 25.712C80.896 25.928 81.04 26 81.256 26ZM74.68 11.576H78.256C79.792 11.576 80.824 12.608 80.824 14.12C80.824 15.584 79.792 16.592 78.256 16.592H74.68C74.584 16.592 74.536 16.544 74.536 16.448V11.72C74.536 11.624 74.584 11.576 74.68 11.576ZM97.5453 26H99.7293C99.9933 26 100.113 25.832 100.041 25.568L94.8813 9.512C94.8093 9.296 94.6653 9.2 94.4493 9.2H91.6413C91.4253 9.2 91.2812 9.296 91.2093 9.512L86.0732 25.568C86.0013 25.832 86.1213 26 86.3853 26H88.5693C88.7853 26 88.9293 25.904 89.0013 25.688L89.7453 23.216C89.7693 23.12 89.8413 23.096 89.9133 23.096H96.2013C96.2733 23.096 96.3453 23.12 96.3693 23.216L97.1133 25.688C97.1853 25.904 97.3293 26 97.5453 26ZM90.4893 20.744L92.9613 12.584C93.0093 12.464 93.1053 12.464 93.1533 12.584L95.6253 20.744C95.6493 20.864 95.6013 20.912 95.5053 20.912H90.6093C90.5133 20.912 90.4653 20.864 90.4893 20.744ZM107.79 26.192C111.39 26.192 113.766 24.104 113.766 20.36V17.384C113.766 17.144 113.622 17 113.382 17H108.03C107.79 17 107.646 17.144 107.646 17.384V18.968C107.646 19.208 107.79 19.352 108.03 19.352H110.862C110.958 19.352 111.006 19.4 111.006 19.496V20.96C111.006 22.736 109.806 23.792 107.91 23.792C105.942 23.792 104.55 22.52 104.55 20.6V14.6C104.55 12.68 105.846 11.408 107.79 11.408C109.758 11.408 111.006 12.68 111.006 14.384V14.576C111.006 14.696 111.15 14.792 111.39 14.792H113.382C113.622 14.792 113.766 14.648 113.766 14.408V14.312C113.766 11.288 111.39 9.008 107.79 9.008C104.166 9.008 101.766 11.264 101.766 14.696V20.504C101.766 23.912 104.166 26.192 107.79 26.192ZM117.113 26H119.105C119.345 26 119.489 25.88 119.489 25.616L119.465 14.72C119.465 14.576 119.561 14.552 119.633 14.672L126.353 25.736C126.449 25.904 126.641 26 126.833 26H128.801C129.041 26 129.185 25.856 129.185 25.616V9.584C129.185 9.344 129.041 9.2 128.801 9.2H126.785C126.545 9.2 126.401 9.344 126.401 9.584V20.408C126.401 20.552 126.305 20.576 126.233 20.456L119.513 9.464C119.417 9.296 119.225 9.2 119.033 9.2H117.113C116.873 9.2 116.729 9.344 116.729 9.584V25.616C116.729 25.856 116.873 26 117.113 26ZM143.178 26H145.362C145.626 26 145.746 25.832 145.674 25.568L140.514 9.512C140.442 9.296 140.298 9.2 140.082 9.2H137.274C137.058 9.2 136.914 9.296 136.842 9.512L131.706 25.568C131.634 25.832 131.754 26 132.018 26H134.202C134.418 26 134.562 25.904 134.634 25.688L135.378 23.216C135.402 23.12 135.474 23.096 135.546 23.096H141.834C141.906 23.096 141.978 23.12 142.002 23.216L142.746 25.688C142.818 25.904 142.962 26 143.178 26ZM136.122 20.744L138.594 12.584C138.642 12.464 138.738 12.464 138.786 12.584L141.258 20.744C141.282 20.864 141.234 20.912 141.138 20.912H136.242C136.146 20.912 136.098 20.864 136.122 20.744ZM157.733 26H159.845C160.133 26 160.253 25.808 160.133 25.544L156.821 18.68C156.773 18.608 156.797 18.512 156.893 18.488C158.861 17.912 160.085 16.304 160.085 14.072C160.085 11.144 158.093 9.176 155.117 9.176H148.613C148.373 9.176 148.229 9.32 148.229 9.56V25.616C148.229 25.856 148.373 26 148.613 26H150.629C150.869 26 151.013 25.856 151.013 25.616V18.896C151.013 18.8 151.085 18.752 151.157 18.752H153.965C154.037 18.752 154.109 18.776 154.133 18.848L157.277 25.712C157.373 25.928 157.517 26 157.733 26ZM151.157 11.576H154.733C156.269 11.576 157.301 12.608 157.301 14.12C157.301 15.584 156.269 16.592 154.733 16.592H151.157C151.061 16.592 151.013 16.544 151.013 16.448V11.72C151.013 11.624 151.061 11.576 151.157 11.576Z" fill="white"/>
</svg>
