<svg width="24" height="22" viewBox="0 0 24 22" fill="none" xmlns="http://www.w3.org/2000/svg">
<path d="M24 9.9118V9.83885L23.0517 1.88748L13.7872 5.389L12.0365 0.574413V0.501465L11.9635 0.647361L10.2128 5.389L1.02127 1.88748L0 9.7659V9.9118L4.44985 13.9969L0.802436 17.1337L2.33436 20.7811L7.14893 13.5592L3.35563 11.079V11.006L3.42858 11.079L4.15806 6.55618L9.99393 9.40116L9.92098 19.6139L12.0365 21.2917L14.079 19.6139V9.40116L19.842 6.55618L20.5714 11.006L20.4985 11.079L16.7781 13.6322L21.5927 20.7811L23.1246 17.1337L19.4772 13.9969L24 9.9118Z" fill="#F1F1F1"/>
</svg>
