<svg width="69" height="72" viewBox="0 0 69 72" fill="none" xmlns="http://www.w3.org/2000/svg">
<path opacity="0.2" fill-rule="evenodd" clip-rule="evenodd" d="M67.9572 53.1727C66.6894 59.7147 64.2658 65.9905 60.6862 72L44.0189 65.3819C42.1546 64.6973 40.9241 63.5372 40.3275 61.9017C39.7309 60.2662 40.1038 58.3455 41.4461 56.1395C44.1308 51.7274 45.8087 47.3154 46.4799 42.9033C47.151 38.4913 47.207 34.3455 46.6477 30.4659C46.0884 26.5864 45.1002 23.0872 43.6833 19.9683C42.2664 16.8494 40.775 14.3391 39.2089 12.4374C38.3886 11.6006 37.9039 10.4596 37.7547 9.01426C37.6056 7.56894 38.2767 6.35182 39.7682 5.36292L48.3815 0C53.9745 4.64025 58.4303 9.87005 61.7489 15.6894C65.0674 21.5087 67.2487 27.5753 68.2928 33.8891C69.3368 40.2029 69.2249 46.6307 67.9572 53.1727ZM30.2228 53.1727C28.955 59.7147 26.5314 65.9905 22.9518 72L6.28455 65.3819C4.4202 64.6973 3.18973 63.5372 2.59314 61.9017C1.99655 60.2662 2.36942 58.3455 3.71175 56.1395C6.39641 51.7274 8.07433 47.3154 8.74549 42.9033C9.41666 38.4913 9.47259 34.3455 8.91328 30.4659C8.35398 26.5864 7.36588 23.0872 5.94897 19.9683C4.53207 16.8494 3.04058 14.3391 1.47453 12.4374C0.654221 11.6006 0.169487 10.4596 0.02034 9.01426C-0.128807 7.56894 0.542358 6.35182 2.03384 5.36292L10.6471 0C16.2402 4.64025 20.696 9.87005 24.0145 15.6894C27.333 21.5087 29.5143 27.5753 30.5584 33.8891C31.6024 40.2029 31.4906 46.6307 30.2228 53.1727Z" fill="#E2722B"/>
</svg>
