<svg width="69" height="72" viewBox="0 0 69 72" fill="none" xmlns="http://www.w3.org/2000/svg">
<path opacity="0.2" fill-rule="evenodd" clip-rule="evenodd" d="M1.04283 53.1727C2.31059 59.7147 4.73424 65.9905 8.31379 72L24.9811 65.3819C26.8454 64.6973 28.0759 63.5372 28.6725 61.9017C29.2691 60.2662 28.8962 58.3455 27.5539 56.1395C24.8692 51.7274 23.1913 47.3154 22.5201 42.9033C21.849 38.4913 21.793 34.3455 22.3523 30.4659C22.9116 26.5864 23.8998 23.0872 25.3167 19.9683C26.7336 16.8494 28.225 14.3391 29.7911 12.4374C30.6114 11.6006 31.0961 10.4596 31.2453 9.01426C31.3944 7.56894 30.7233 6.35182 29.2318 5.36292L20.6185 0C15.0255 4.64025 10.5697 9.87005 7.25111 15.6894C3.93257 21.5087 1.75129 27.5753 0.70725 33.8891C-0.336786 40.2029 -0.224925 46.6307 1.04283 53.1727ZM38.7772 53.1727C40.045 59.7147 42.4686 65.9905 46.0482 72L62.7154 65.3819C64.5798 64.6973 65.8103 63.5372 66.4069 61.9017C67.0034 60.2662 66.6306 58.3455 65.2883 56.1395C62.6036 51.7274 60.9257 47.3154 60.2545 42.9033C59.5833 38.4913 59.5274 34.3455 60.0867 30.4659C60.646 26.5864 61.6341 23.0872 63.051 19.9683C64.4679 16.8494 65.9594 14.3391 67.5255 12.4374C68.3458 11.6006 68.8305 10.4596 68.9797 9.01426C69.1288 7.56894 68.4576 6.35182 66.9662 5.36292L58.3529 0C52.7598 4.64025 48.304 9.87005 44.9855 15.6894C41.667 21.5087 39.4857 27.5753 38.4416 33.8891C37.3976 40.2029 37.5094 46.6307 38.7772 53.1727Z" fill="#E2722B"/>
</svg>
